Coordinates
version=1
nRows=26
nColumns=24
inDegrees=yes

Units are S.I. units (second, meters, Newtons, ...)
Angles are in degrees.

endheader
time	pelvis_tilt	pelvis_list	pelvis_rotation	pelvis_tx	pelvis_ty	pelvis_tz	hip_flexion_r	hip_adduction_r	hip_rotation_r	knee_angle_r	ankle_angle_r	subtalar_angle_r	mtp_angle_r	hip_flexion_l	hip_adduction_l	hip_rotation_l	knee_angle_l	ankle_angle_l	subtalar_angle_l	mtp_angle_l	lumbar_extension	lumbar_bending	lumbar_rotation
      0.67950000	     10.06154609	     -2.13360643	     -4.11255961	     -0.52492380	      1.03806084	      0.33461501	     -2.15341794	      4.58796867	     -4.44238826	    -10.39212896	     -3.86221649	    -13.29874343	      0.71100920	      9.42107760	     -6.40288155	     -8.49881328	    -67.88530027	      3.05077560	    -16.04643336	     -1.20149147	    -22.82421103	      4.11880479	      6.30515587
      0.68366667	     10.01692019	     -1.94103706	     -4.16128282	     -0.51956286	      1.03897139	      0.33500465	     -2.60167843	      4.39218041	     -4.37201532	    -10.05414042	     -3.77672297	    -13.25957092	      0.70845338	     10.04525076	     -6.16340707	     -8.46830259	    -67.30259044	      3.21188450	    -16.10035321	     -1.25694573	    -22.77022461	      3.86803212	      6.36847841
      0.68783333	      9.97321451	     -1.74657349	     -4.21465327	     -0.51420210	      1.03984489	      0.33540475	     -3.04845343	      4.19303229	     -4.30704318	     -9.71886532	     -3.69441234	    -13.21263069	      0.70426602	     10.64063233	     -5.92435465	     -8.46050475	    -66.63738429	      3.34321841	    -16.18384994	     -1.31850900	    -22.71892865	      3.61236005	      6.43578382
      0.69200000	      9.95178638	     -1.55437927	     -4.27055388	     -0.50884370	      1.04070284	      0.33581305	     -3.51901694	      3.99328794	     -4.24972033	     -9.38249900	     -3.61245924	    -13.16410245	      0.69860248	     11.18249031	     -5.68900061	     -8.47541091	    -65.89196158	      3.45726353	    -16.29119870	     -1.38525882	    -22.68828343	      3.35388549	      6.50607275
      0.69616667	      9.98836488	     -1.35229581	     -4.35469357	     -0.50345121	      1.04164344	      0.33626591	     -4.05581510	      3.77154880	     -4.19149389	     -9.04530794	     -3.46634088	    -13.02298443	      0.68527042	     11.61137311	     -5.44636684	     -8.55088201	    -65.03196265	      3.46346894	    -16.49860138	     -1.53847504	    -22.71713011	      3.06756371	      6.60825699
      0.70033333	      9.97888512	     -1.16868700	     -4.42022556	     -0.49805266	      1.04244438	      0.33669286	     -4.54275194	      3.57728773	     -4.13857142	     -8.70455332	     -3.38744552	    -12.96807977	      0.66785604	     12.07547850	     -5.22715607	     -8.61185404	    -64.12972567	      3.54637393	    -16.63220956	     -1.69343080	    -22.69538418	      2.81445680	      6.68030195
      0.70450000	      9.97704291	     -0.99478682	     -4.48804779	     -0.49266844	      1.04319622	      0.33714646	     -5.03826728	      3.39431219	     -4.07734046	     -8.36121747	     -3.30307262	    -12.91344697	      0.64838650	     12.50571421	     -5.02433374	     -8.69112918	    -63.16177367	      3.59951680	    -16.78984467	     -1.85169078	    -22.68855955	      2.55201127	      6.75781779
      0.70866667	      9.91085917	     -0.85015805	     -4.52382744	     -0.48726903	      1.04376856	      0.33754171	     -5.46193344	      3.25114611	     -4.04986945	     -8.02471001	     -3.26812684	    -12.91967444	      0.63863283	     12.99553213	     -4.85434251	     -8.73867192	    -62.16592598	      3.75038452	    -16.87176139	     -1.91459637	    -22.60468569	      2.35032808	      6.80747240
      0.71283333	      9.98159502	     -0.67240661	     -4.63743516	     -0.48187178	      1.04455246	      0.33805763	     -6.02793343	      3.04861760	     -3.97088412	     -7.69890321	     -3.12786443	    -12.81003048	      0.61501998	     13.26384685	     -4.65426799	     -8.90749475	    -61.01802456	      3.68904780	    -17.12165921	     -2.08337938	    -22.67426729	      2.07440156	      6.91133686
      0.71700000	      9.91133249	     -0.54353862	     -4.66490085	     -0.47646561	      1.04500893	      0.33842400	     -6.44467530	      2.92166361	     -3.94934105	     -7.36819375	     -3.09451156	    -12.81442224	      0.60275327	     13.70381031	     -4.49969958	     -8.96556267	    -59.89330698	      3.82101856	    -17.18354405	     -2.15358397	    -22.58883856	      1.89258035	      6.96672012
      0.72116667	     10.00529445	     -0.38124429	     -4.78759995	     -0.47107589	      1.04571298	      0.33897055	     -7.03220461	      2.73154176	     -3.85908404	     -7.04745839	     -2.94221683	    -12.68941538	      0.57121435	     13.88582469	     -4.32087195	     -9.16579165	    -58.61433298	      3.75371409	    -17.42772059	     -2.35385344	    -22.69579139	      1.61476774	      7.07874482
      0.72533333	     10.07593477	     -0.28320580	     -4.89533666	     -0.46567647	      1.04629792	      0.33960789	     -7.62139550	      2.63567519	     -3.68879774	     -6.66937852	     -2.97360388	    -12.88511350	      0.01183208	     14.07385111	     -4.23446778	     -9.35837397	    -57.32357224	      3.86027209	    -17.44308819	     -5.54109929	    -22.77557186	      1.40523772	      7.20202737
      0.72950000	     10.00096970	     -0.14800881	     -4.95040333	     -0.46025708	      1.04657096	      0.33991699	     -7.98628920	      2.47659345	     -3.73661839	     -6.44125235	     -2.74663803	    -12.61616244	      0.00096431	     14.42421975	     -4.06851746	     -9.48023032	    -55.99079548	      3.86814705	    -17.59201702	     -5.61333991	    -22.68041167	      1.21114389	      7.28179364
      0.73366667	      9.92008100	     -0.06674632	     -4.95640263	     -0.45484038	      1.04674828	      0.34021104	     -8.37133304	      2.39828172	     -3.75760651	     -6.15932603	     -2.68360459	    -12.61625241	     -0.00687821	     14.76913915	     -3.96085256	     -9.55413049	    -54.63457094	      3.94673123	    -17.62652354	     -5.64930009	    -22.58382496	      1.08604666	      7.31236826
      0.73783333	      9.99745388	      0.04423800	     -5.05994843	     -0.44944123	      1.04716035	      0.34068509	     -8.91974761	      2.25828065	     -3.70066172	     -5.88539160	     -2.51139324	    -12.48136798	     -0.02556645	     14.86300769	     -3.83220933	     -9.76580018	    -53.13509959	      3.89655977	    -17.80091269	     -5.74789893	    -22.67556214	      0.87516288	      7.38897810
      0.74200000	      9.98514472	      0.11204009	     -5.11170481	     -0.44403962	      1.04733442	      0.34104880	     -9.36529925	      2.17902330	     -3.68030652	     -5.62928924	     -2.39078997	    -12.43139696	     -0.04654724	     15.05370287	     -3.74486799	     -9.91399472	    -51.63187105	      3.93009954	    -17.83683252	     -5.84562179	    -22.65858972	      0.73956728	      7.46011037
      0.74616667	      9.95058720	      0.15853462	     -5.15253065	     -0.43861115	      1.04739504	      0.34139597	     -9.78228475	      2.12620959	     -3.68050526	     -5.38943179	     -2.26281317	    -12.39679779	     -0.06641236	     15.24570549	     -3.68339635	    -10.06781547	    -50.08959088	      3.96716879	    -17.85336222	     -5.93065797	    -22.61305924	      0.62982359	      7.51191141
      0.75033333	      9.90867301	      0.19806450	     -5.19836579	     -0.43321287	      1.04738326	      0.34171037	    -10.18083024	      2.07676909	     -3.65202169	     -5.16866422	     -2.11258601	    -12.33535532	     -0.08900437	     15.41790494	     -3.61960251	    -10.21483931	    -48.48929476	      3.99828291	    -17.85151058	     -6.02455579	    -22.57865880	      0.53761522	      7.57051381
      0.75450000	      9.78580196	      0.19124731	     -5.16523641	     -0.42783572	      1.04713872	      0.34186204	    -10.48776383	      2.09738670	     -3.67624414	     -4.96687684	     -1.98382290	    -12.35461161	     -0.09950169	     15.68672480	     -3.58724279	    -10.26439866	    -46.88861258	      4.06502792	    -17.74301609	     -6.06260296	    -22.45641025	      0.52912631	      7.60018311
      0.75866667	      9.81091936	      0.21775354	     -5.23616405	     -0.42244356	      1.04710767	      0.34219005	    -10.94648176	      2.04577470	     -3.63827253	     -4.77126501	     -1.78586423	    -12.21900317	     -0.12653315	     15.71115728	     -3.52999801	    -10.45843881	    -45.15365736	      4.07285102	    -17.73941410	     -6.16257236	    -22.49941555	      0.43319526	      7.64052403
      0.76283333	      9.67061363	      0.17441289	     -5.18446105	     -0.41704411	      1.04669473	      0.34227337	    -11.22539802	      2.10673486	     -3.69000928	     -4.59818751	     -1.64080053	    -12.24416238	     -0.13806980	     15.94767962	     -3.52684551	    -10.50014186	    -43.46578593	      4.13915458	    -17.57788995	     -6.19919382	    -22.35943829	      0.48025606	      7.66560530
      0.76700000	      9.62231428	      0.15798346	     -5.21861027	     -0.41160913	      1.04640478	      0.34249080	    -11.59330104	      2.10898673	     -3.68471875	     -4.44222648	     -1.43058617	    -12.11437102	     -0.16347045	     16.00922404	     -3.50059471	    -10.64872228	    -41.66179704	      4.17513356	    -17.49054321	     -6.28190423	    -22.30914409	      0.44778930	      7.67069866
      0.77116667	      9.55345251	      0.10436437	     -5.18787325	     -0.40622165	      1.04598577	      0.34255121	    -11.93675843	      2.16284658	     -3.72590754	     -4.29755401	     -1.22828991	    -12.04689679	     -0.19544623	     16.09307603	     -3.48900850	    -10.71350535	    -39.84303115	      4.19620842	    -17.31348588	     -6.37170149	    -22.25798359	      0.49266915	      7.69155804
      0.77533333	      9.37459862	      0.00621687	     -5.10845371	     -0.40081526	      1.04530482	      0.34250717	    -12.15594135	      2.28496418	     -3.78727055	     -4.17520689	     -1.05121786	    -12.06935736	     -0.20563886	     16.29872979	     -3.51764271	    -10.71402250	    -38.03618212	      4.25254227	    -17.09404317	     -6.39820379	    -22.07697838	      0.61524750	      7.68862397
      0.77950000	      9.22151821	     -0.08626576	     -5.04749658	     -0.39538361	      1.04460794	      0.34247248	    -12.39576080	      2.39069351	     -3.84577148	     -4.07159330	     -0.83932741	    -12.03088062	     -0.21633890	     16.43543149	     -3.53434594	    -10.73622044	    -36.16701529	      4.28287179	    -16.85673956	     -6.42596191	    -21.92473441	      0.72237806	      7.66018454
      0.78366667	      9.12930779	     -0.16817421	     -5.01503537	     -0.38993307	      1.04396759	      0.34244265	    -12.69970374	      2.46646502	     -3.89315011	     -3.97036774	     -0.59071475	    -11.85674313	     -0.23642372	     16.45504481	     -3.52572209	    -10.77555394	    -34.22070143	      4.30575921	    -16.65821272	     -6.47575718	    -21.83724042	      0.79778490	      7.59883924
